<?xml version="1.0" encoding="UTF-8" standalone="no"?>
<svg
   xmlns:dc="http://purl.org/dc/elements/1.1/"
   xmlns:cc="http://creativecommons.org/ns#"
   xmlns:rdf="http://www.w3.org/1999/02/22-rdf-syntax-ns#"
   xmlns:svg="http://www.w3.org/2000/svg"
   xmlns="http://www.w3.org/2000/svg"
   xmlns:sodipodi="http://sodipodi.sourceforge.net/DTD/sodipodi-0.dtd"
   xmlns:inkscape="http://www.inkscape.org/namespaces/inkscape"
   viewBox="0 0 359 93"
   version="1.1"
   id="svg967"
   sodipodi:docname="icon.svg"
   inkscape:version="1.0.1 (c497b03c, 2020-09-10)">
  <metadata
     id="metadata971">
    <rdf:RDF>
      <cc:Work
         rdf:about="">
        <dc:format>image/svg+xml</dc:format>
        <dc:type
           rdf:resource="http://purl.org/dc/dcmitype/StillImage" />
      </cc:Work>
    </rdf:RDF>
  </metadata>
  <sodipodi:namedview
     pagecolor="#ffffff"
     bordercolor="#666666"
     borderopacity="1"
     objecttolerance="10"
     gridtolerance="10"
     guidetolerance="10"
     inkscape:pageopacity="0"
     inkscape:pageshadow="2"
     inkscape:window-width="1440"
     inkscape:window-height="847"
     id="namedview969"
     showgrid="false"
     inkscape:zoom="2.5849582"
     inkscape:cx="203.08658"
     inkscape:cy="90.721067"
     inkscape:window-x="0"
     inkscape:window-y="25"
     inkscape:window-maximized="1"
     inkscape:current-layer="svg967" />
  <defs
     id="defs897">
    <rect
       x="136.17241"
       y="15.860991"
       width="202.71121"
       height="47.196121"
       id="rect975" />
    <style
       id="style890">.a82a4696-c3bc-4d6f-95cf-b1033f85947e{fill:#0f0303;}.b46bf809-b789-422c-bb02-cd3502877cd9{opacity:0.8;fill:url(#bd71f4ea-dc4a-4f69-bb49-3674d6cb035e);}</style>
    <linearGradient
       id="bd71f4ea-dc4a-4f69-bb49-3674d6cb035e"
       x1="77.84"
       y1="8.01"
       x2="32.16"
       y2="87.13"
       gradientUnits="userSpaceOnUse">
      <stop
         offset="0"
         stop-color="#c39ec1"
         id="stop892" />
      <stop
         offset="0.99"
         stop-color="#076aab"
         id="stop894" />
    </linearGradient>
  </defs>
  <title
     id="title899">logo-03</title>
  <g
     id="g1410"
     transform="matrix(0.70137597,0,0,0.80661265,86.310905,-92.092727)">
    <path
       fill="#14384d"
       d="m -48.000137,153.25495 c -10.505151,-0.015 -19.007439,7.42615 -18.980892,16.61122 0.0295,9.17475 8.59373,16.59935 19.084132,16.53944 10.407812,-0.0583 18.823968,-7.50877 18.782672,-16.62826 -0.04071,-9.16494 -8.433854,-16.50587 -18.885912,-16.5224 m 0.595844,31.89318 c -8.717027,-0.0413 -15.744453,-6.28744 -15.700207,-13.9563 0.0472,-7.64407 7.159573,-13.78433 15.927336,-13.74973 8.705821,0.0331 15.771003,6.29931 15.726757,13.94855 -0.04366,7.60896 -7.220928,13.79569 -15.953886,13.75748"
       id="path1339"
       style="stroke-width:0.551961" />
    <path
       fill="#14384d"
       d="m -9.3510662,157.23088 c -8.5807508,-0.0465 -15.6176148,6.02406 -15.6836888,13.53077 -0.07079,7.63426 6.823894,13.8179 15.4713085,13.87677 8.68989039,0.0604 15.7261648,-6.0158 15.7656911,-13.6103 0.035987,-7.63994 -6.85162159,-13.75076 -15.5533108,-13.79724 m -1.4866618,25.45391 c -6.802656,0.0537 -12.356398,-4.74178 -12.392975,-10.69767 -0.03599,-5.99308 5.399177,-10.802 12.22956,-10.81749 6.8032466,-0.0155 12.3381109,4.80944 12.3322115,10.75242 -0.00295,5.86448 -5.4805894,10.70955 -12.1687965,10.76274"
       id="path1341"
       style="stroke-width:0.551961" />
    <path
       fill="#14384d"
       d="m -44.657507,163.01068 c -6.186165,0.002 -11.219576,4.38906 -11.219576,9.78412 -0.0024,5.37285 5.068808,9.81202 11.216626,9.8177 6.171415,0.005 11.16589,-4.38288 11.16943,-9.81357 0,-5.4436 -4.956718,-9.7898 -11.16648,-9.78825 m -5.239303,9.8998 c -1.752727,-0.0341 -3.262396,-1.44959 -3.168005,-2.96374 0.09085,-1.49556 1.583412,-2.70657 3.294843,-2.67972 1.81703,0.0289 3.201043,1.33082 3.12435,2.94516 -0.07079,1.51311 -1.542708,2.73393 -3.251188,2.6983"
       id="path1343"
       style="stroke-width:0.551961" />
    <path
       fill="#14384d"
       d="m -12.615232,165.38209 c -4.901263,-0.0532 -8.890472,3.29528 -9.011411,7.56712 -0.121528,4.20471 3.849392,7.79952 8.686941,7.86097 4.9042132,0.064 8.8686438,-3.28134 8.9689345,-7.57487 0.1032403,-4.2801 -3.7732885,-7.80003 -8.6444645,-7.85322 m -3.742611,8.05411 c -1.61055,0.0537 -2.917869,-1.05557 -2.90607,-2.46746 0.01239,-1.35406 1.225316,-2.41118 2.775102,-2.42151 1.532087,-0.008 2.79103,1.05402 2.827016,2.38381 0.03363,1.32772 -1.17989,2.453 -2.696048,2.50516"
       id="path1345"
       style="stroke-width:0.551961" />
    <path
       fill="#14384d"
       d="m 44.188009,229.9351 c -0.919229,-39.3376 2.569274,-74.10371 0.840285,-113.22491 l -151.112854,-0.7983 c 2.7463,40.08046 -0.0782,72.43253 0.81702,113.04763 M 9.6899997,174.77425 c 0.079053,2.38793 1.2831303,4.09729 3.8942273,5.1198 2.311404,0.90529 2.939696,2.22423 2.563311,4.42987 -0.251907,1.48316 -0.74982,2.91468 -1.407609,4.28991 -1.040073,2.16846 -2.383968,2.783 -5.0617282,2.42512 -3.7367119,-0.49835 -4.6499468,-0.10793 -6.2486978,2.90435 -0.5120723,0.96158 -1.3368155,1.79715 -1.5255979,2.88938 -0.2241791,1.27608 0.161055,2.38845 0.9651501,3.47604 1.5285476,2.07137 1.373392,3.58242 -0.5982043,5.31811 -1.1975884,1.05402 -2.52024516,2.02334 -3.9030763,2.88473 -2.1774871,1.35664 -3.9673804,1.1542 -5.8900112,-0.49215 -2.6482634,-2.26709 -2.7756914,-2.25986 -6.0605054,-0.64553 -0.837132,0.41211 -1.792253,0.66102 -2.717287,0.91614 -1.750367,0.48388 -2.556822,1.5379 -2.599298,3.10008 -0.0029,0.16112 0.0024,0.32018 0,0.48027 -0.0761,3.95269 -1.38932,5.1291 -5.945466,5.126 -1.697861,0 -3.396313,-0.25201 -5.098305,-0.33257 -0.812354,-0.0362 -1.209977,-0.43793 -1.473682,-1.00599 -0.366946,-0.78806 -0.700855,-1.59007 -1.028275,-2.39207 -0.96456,-2.3554 -1.92322,-2.90745 -4.831649,-2.80985 -0.279044,0.0103 -0.558089,-0.17145 -0.845982,-0.21122 -3.369766,-0.46271 -5.068218,0.2577 -6.803836,2.87182 -1.206437,1.82297 -1.919681,2.08428 -4.139646,1.39796 -1.546836,-0.47873 -3.066534,-1.03026 -4.595082,-1.55598 -2.726726,-0.93627 -3.396903,-1.84259 -2.860643,-4.40973 0.828283,-3.94184 -0.591125,-5.63519 -4.267073,-7.63839 -1.753316,-0.95641 -3.579196,-1.03594 -5.593268,-0.45755 -3.675948,1.06021 -4.152034,0.86862 -6.341909,-1.92522 -0.824744,-1.05092 -1.443596,-2.22526 -2.244151,-3.29116 -0.883148,-1.17434 -0.815894,-2.35333 0.385234,-3.13106 3.900126,-2.53098 3.815174,-5.5882 2.113773,-9.13085 -0.930934,-1.94381 -1.650076,-2.68126 -4.070621,-2.8083 -3.475956,-0.1823 -4.361464,-0.90581 -4.606881,-3.96199 -0.130968,-1.64532 -0.255446,-3.29735 0.124479,-4.94319 0.372845,-1.63293 1.485481,-2.48554 3.351477,-2.67971 4.218697,-0.44154 4.488892,-0.66515 5.58619,-4.31006 0.203531,-0.66773 0.479625,-1.31739 0.680207,-1.98667 0.578736,-1.97325 0.169904,-2.94464 -1.704942,-4.13706 -2.829966,-1.79715 -3.190422,-3.06186 -1.449495,-5.6636 0.857781,-1.2833 2.868903,-3.69964 2.868903,-3.69964 0,0 2.844715,-1.75635 4.864687,-0.9497 3.788627,1.51415 4.422228,1.42636 7.410299,-1.01735 0.621803,-0.50919 1.279591,-0.9874 1.883105,-1.51467 1.386371,-1.20842 1.756266,-2.57126 1.028274,-4.22949 -1.337405,-3.04431 -0.764569,-4.151 2.651213,-5.51074 1.330916,-0.52726 2.656523,-1.06796 4.006907,-1.55598 2.162738,-0.77928 3.563859,-0.39299 4.8464,1.30913 0.500273,0.66619 0.906745,1.39331 1.447135,2.03367 0.776368,0.9213 1.849478,1.40777 3.181574,1.19552 1.795202,-0.28403 3.584506,-0.60112 5.36201,-0.95486 1.807592,-0.35943 2.772152,-1.4496 3.151487,-2.98389 0.991697,-3.98729 1.319117,-4.29095 5.887061,-3.56279 1.565714,0.24943 3.169775,0.61351 4.707762,1.038 2.338542,0.64863 2.405205,2.44784 2.374528,4.21039 -0.0094,2.86666 0.312081,3.25088 3.421681,4.32607 1.015886,0.35374 1.992835,0.79683 2.983942,1.20532 1.750367,0.72196 3.2671161,0.44 4.6930132,-0.6889 3.5750669,-2.82535 3.5933552,-2.81037 7.29997986,-0.21432 0.71324354,0.49938 1.43474632,0.99308 2.11141324,1.52964 2.4170048,1.91335 2.5898587,2.69572 1.2465539,5.30727 -1.92322082,3.73218 -1.0860888,6.5002 2.5898587,9.03222 1.3645429,0.93937 2.8630032,1.02199 4.4741431,1.00599 3.630522,-0.0325 3.906616,0.16577 5.052879,3.19045 0.597615,1.57044 0.919135,3.19717 1.307318,4.8115 0.21828,0.90529 -0.142766,1.43204 -0.937422,1.86583 -0.673717,0.3646 -1.343305,0.73642 -2.028821,1.08294 -2.660062,1.34425 -3.7219634,3.44247 -3.6370113,6.02871"
       id="path1347"
       sodipodi:nodetypes="ccccccccccccccccccccccccccccccccccccccccccccccccccccccccccccccccccccccc"
       style="stroke-width:0.551961" />
  </g>
  <path
     class="a82a4696-c3bc-4d6f-95cf-b1033f85947e"
     d="m 150.36,82.8 -4.28,-12.5 h 1.32 l 3.12,9.38 c 0,0.13 0.11,0.32 0.19,0.57 0.08,0.25 0.13,0.43 0.17,0.53 0,-0.14 0.09,-0.34 0.18,-0.59 0.09,-0.25 0.13,-0.43 0.16,-0.51 l 3,-9.38 h 1.34 l -4.27,12.5 z"
     id="path922" />
  <path
     class="a82a4696-c3bc-4d6f-95cf-b1033f85947e"
     d="m 160.91,83 a 3.46,3.46 0 0 1 -2.87,-1.4 5.32,5.32 0 0 1 -1.04,-3.37 5.18,5.18 0 0 1 1.09,-3.5 3.6,3.6 0 0 1 2.87,-1.27 3.37,3.37 0 0 1 2.59,1.12 4.71,4.71 0 0 1 1,3.29 7.78,7.78 0 0 1 0,0.88 h -6.21 a 4.2,4.2 0 0 0 0.86,2.27 2.27,2.27 0 0 0 1.84,0.84 3.37,3.37 0 0 0 2.05,-0.72 l 0.68,0.84 A 4.26,4.26 0 0 1 160.91,83 Z m -2.67,-5.4 h 5 a 3.22,3.22 0 0 0 -0.72,-2.34 2.25,2.25 0 0 0 -1.62,-0.69 2.44,2.44 0 0 0 -1.87,0.77 3.34,3.34 0 0 0 -0.79,2.28 z"
     id="path924" />
  <path
     class="a82a4696-c3bc-4d6f-95cf-b1033f85947e"
     d="m 167.81,82.8 v -9.12 h 1.25 V 75 a 2.37,2.37 0 0 1 2.3,-1.5 2.11,2.11 0 0 1 1.28,0.38 l -0.19,1.21 a 2.27,2.27 0 0 0 -1.18,-0.34 2.11,2.11 0 0 0 -1.53,0.71 3.07,3.07 0 0 0 -0.68,2.22 v 5.12 z"
     id="path926" />
  <path
     class="a82a4696-c3bc-4d6f-95cf-b1033f85947e"
     d="m 178,83 a 4,4 0 0 1 -3.15,-1.59 l 0.88,-0.77 a 3.07,3.07 0 0 0 2.37,1.25 2.23,2.23 0 0 0 1.29,-0.35 1.13,1.13 0 0 0 0.5,-1 1.41,1.41 0 0 0 -0.18,-0.71 1.78,1.78 0 0 0 -0.56,-0.57 5.39,5.39 0 0 0 -0.69,-0.4 c -0.2,-0.1 -0.48,-0.21 -0.84,-0.36 -0.36,-0.15 -0.78,-0.34 -1.05,-0.48 a 5,5 0 0 1 -0.84,-0.54 2,2 0 0 1 -0.64,-0.75 2.48,2.48 0 0 1 -0.2,-1 2,2 0 0 1 0.82,-1.67 3.35,3.35 0 0 1 2.12,-0.65 3.7,3.7 0 0 1 3,1.4 l -0.82,0.69 a 3,3 0 0 0 -2.18,-1 2.24,2.24 0 0 0 -1.26,0.32 1,1 0 0 0 -0.47,0.88 1.08,1.08 0 0 0 0.12,0.5 1.65,1.65 0 0 0 0.29,0.38 2.12,2.12 0 0 0 0.5,0.34 5.38,5.38 0 0 0 0.53,0.27 l 0.65,0.26 0.84,0.34 a 6.33,6.33 0 0 1 0.75,0.42 2.62,2.62 0 0 1 0.7,0.55 2.78,2.78 0 0 1 0.43,0.71 2.55,2.55 0 0 1 0.19,1 2.24,2.24 0 0 1 -0.83,1.82 A 3.46,3.46 0 0 1 178,83 Z"
     id="path928" />
  <path
     class="a82a4696-c3bc-4d6f-95cf-b1033f85947e"
     d="m 185.68,71.57 a 0.78,0.78 0 0 1 -0.59,0.23 0.79,0.79 0 0 1 -0.82,-0.82 0.85,0.85 0 0 1 0.24,-0.61 0.81,0.81 0 0 1 1.17,0 0.89,0.89 0 0 1 0.23,0.61 0.81,0.81 0 0 1 -0.23,0.59 z m -1.22,11.23 v -9.12 h 1.25 v 9.12 z"
     id="path930" />
  <path
     class="a82a4696-c3bc-4d6f-95cf-b1033f85947e"
     d="m 193,83 a 3.54,3.54 0 0 1 -2.85,-1.26 6.32,6.32 0 0 1 0,-7 3.81,3.81 0 0 1 5.68,0 6.27,6.27 0 0 1 0,7 A 3.52,3.52 0 0 1 193,83 Z m 0,-1.13 a 2.22,2.22 0 0 0 1.92,-1 5.68,5.68 0 0 0 0,-5.37 2.2,2.2 0 0 0 -1.93,-1 2.23,2.23 0 0 0 -1.94,0.94 5.78,5.78 0 0 0 0,5.4 2.22,2.22 0 0 0 1.95,1.05 z"
     id="path932" />
  <path
     class="a82a4696-c3bc-4d6f-95cf-b1033f85947e"
     d="m 205.93,82.8 v -5.57 a 2.94,2.94 0 0 0 -0.58,-2 2,2 0 0 0 -1.55,-0.63 q -2.25,0 -2.25,2.61 v 5.6 h -1.25 v -9.13 h 1.25 v 1 a 2.71,2.71 0 0 1 2.36,-1.22 2.93,2.93 0 0 1 2.47,1 5.34,5.34 0 0 1 0.8,3.27 v 5 z"
     id="path934" />
  <path
     class="a82a4696-c3bc-4d6f-95cf-b1033f85947e"
     d="m 219,83 a 3.13,3.13 0 0 1 -2.63,-1.26 5.61,5.61 0 0 1 -1,-3.51 5.54,5.54 0 0 1 1,-3.52 3.33,3.33 0 0 1 2.75,-1.27 3.23,3.23 0 0 1 1.79,0.5 3.06,3.06 0 0 1 1.09,1.43 l -1.14,0.45 a 1.84,1.84 0 0 0 -1.84,-1.23 c -1.6,0 -2.39,1.22 -2.39,3.66 0,2.44 0.78,3.64 2.35,3.64 a 2.11,2.11 0 0 0 1.26,-0.37 2.06,2.06 0 0 0 0.76,-1 l 1.12,0.43 A 2.81,2.81 0 0 1 221,82.45 3.59,3.59 0 0 1 219,83 Z"
     id="path936" />
  <path
     class="a82a4696-c3bc-4d6f-95cf-b1033f85947e"
     d="m 228.64,83 a 3.54,3.54 0 0 1 -2.85,-1.26 6.32,6.32 0 0 1 0,-7 3.81,3.81 0 0 1 5.68,0 6.27,6.27 0 0 1 0,7 3.52,3.52 0 0 1 -2.83,1.26 z m 0,-1.13 a 2.19,2.19 0 0 0 1.91,-1 5.64,5.64 0 0 0 0,-5.37 2.45,2.45 0 0 0 -3.87,0 5.78,5.78 0 0 0 0,5.4 2.21,2.21 0 0 0 1.96,0.99 z"
     id="path938" />
  <path
     class="a82a4696-c3bc-4d6f-95cf-b1033f85947e"
     d="m 241.54,82.8 v -5.57 a 2.94,2.94 0 0 0 -0.57,-2 2,2 0 0 0 -1.55,-0.63 q -2.25,0 -2.25,2.61 v 5.6 h -1.25 v -9.13 h 1.25 v 1 a 2.7,2.7 0 0 1 2.36,-1.22 2.93,2.93 0 0 1 2.47,1 5.35,5.35 0 0 1 0.79,3.27 v 5 z"
     id="path940" />
  <path
     class="a82a4696-c3bc-4d6f-95cf-b1033f85947e"
     d="m 249,83 c -1.2,0 -1.8,-0.7 -1.8,-2.09 V 74.8 h -1.56 v -1.12 h 1.56 v -3.14 l 1.25,-0.63 v 3.77 h 2.32 v 1.12 h -2.32 v 5.59 a 2.35,2.35 0 0 0 0.19,1.07 0.81,0.81 0 0 0 0.79,0.38 2.53,2.53 0 0 0 1.37,-0.54 l -0.14,1.31 A 3.49,3.49 0 0 1 249,83 Z"
     id="path942" />
  <path
     class="a82a4696-c3bc-4d6f-95cf-b1033f85947e"
     d="m 254.08,82.8 v -9.12 h 1.25 V 75 a 2.37,2.37 0 0 1 2.3,-1.5 2.16,2.16 0 0 1 1.29,0.38 l -0.2,1.21 a 2.27,2.27 0 0 0 -1.18,-0.34 2.11,2.11 0 0 0 -1.53,0.71 3.12,3.12 0 0 0 -0.68,2.22 v 5.12 z"
     id="path944" />
  <path
     class="a82a4696-c3bc-4d6f-95cf-b1033f85947e"
     d="m 265,83 a 3.54,3.54 0 0 1 -2.85,-1.26 6.32,6.32 0 0 1 0,-7 3.82,3.82 0 0 1 5.69,0 6.32,6.32 0 0 1 0,7 A 3.52,3.52 0 0 1 265,83 Z m 0,-1.13 a 2.22,2.22 0 0 0 1.92,-1 5.64,5.64 0 0 0 0,-5.37 2.46,2.46 0 0 0 -3.88,0 5.78,5.78 0 0 0 0,5.4 2.23,2.23 0 0 0 1.96,0.99 z"
     id="path946" />
  <path
     class="a82a4696-c3bc-4d6f-95cf-b1033f85947e"
     d="M 272.33,82.8 V 70.52 l 1.25,-0.61 V 82.8 Z"
     id="path948" />
  <path
     class="a82a4696-c3bc-4d6f-95cf-b1033f85947e"
     d="m 284.2,74.8 v 8 H 283 v -8 h -1.47 V 73.68 H 283 v -1.56 a 1.8,1.8 0 0 1 1.89,-2 3.16,3.16 0 0 1 1.55,0.43 v 1.09 a 2.75,2.75 0 0 0 -1.3,-0.36 1.21,1.21 0 0 0 -0.5,0.09 0.57,0.57 0 0 0 -0.28,0.27 1.11,1.11 0 0 0 -0.09,0.32 2.07,2.07 0 0 0 0,0.39 v 1.36 h 2.19 v 1.09 z"
     id="path950" />
  <path
     class="a82a4696-c3bc-4d6f-95cf-b1033f85947e"
     d="m 292.07,83 a 3.54,3.54 0 0 1 -2.85,-1.26 6.32,6.32 0 0 1 0,-7 3.82,3.82 0 0 1 5.69,0 6.32,6.32 0 0 1 0,7 3.52,3.52 0 0 1 -2.84,1.26 z m 0,-1.13 a 2.22,2.22 0 0 0 1.92,-1 5.64,5.64 0 0 0 0,-5.37 2.45,2.45 0 0 0 -3.87,0 5.78,5.78 0 0 0 0,5.4 2.2,2.2 0 0 0 1.95,0.99 z"
     id="path952" />
  <path
     class="a82a4696-c3bc-4d6f-95cf-b1033f85947e"
     d="m 299.36,82.8 v -9.12 h 1.25 V 75 a 2.37,2.37 0 0 1 2.3,-1.5 2.16,2.16 0 0 1 1.29,0.38 l -0.2,1.21 a 2.27,2.27 0 0 0 -1.18,-0.34 2.11,2.11 0 0 0 -1.53,0.71 3.12,3.12 0 0 0 -0.68,2.22 v 5.12 z"
     id="path954" />
  <path
     class="a82a4696-c3bc-4d6f-95cf-b1033f85947e"
     d="m 315.55,83 a 4.72,4.72 0 0 1 -2.64,-0.74 3.63,3.63 0 0 1 -1.52,-1.8 l 1.18,-0.43 a 3.06,3.06 0 0 0 1.18,1.34 3.33,3.33 0 0 0 1.82,0.5 2.9,2.9 0 0 0 1.94,-0.6 2.1,2.1 0 0 0 0.7,-1.7 2.21,2.21 0 0 0 -0.77,-1.74 6.31,6.31 0 0 0 -2.05,-1.17 12.61,12.61 0 0 1 -1.33,-0.57 7.76,7.76 0 0 1 -1.14,-0.73 3,3 0 0 1 -0.89,-1 3,3 0 0 1 -0.3,-1.34 2.59,2.59 0 0 1 1,-2.07 4,4 0 0 1 2.68,-0.84 4.38,4.38 0 0 1 2.28,0.55 2.54,2.54 0 0 1 1.2,1.43 l -1.16,0.39 a 2.12,2.12 0 0 0 -0.87,-0.89 2.94,2.94 0 0 0 -1.51,-0.36 2.7,2.7 0 0 0 -1.71,0.49 1.52,1.52 0 0 0 -0.64,1.28 1.64,1.64 0 0 0 0.22,0.86 2.2,2.2 0 0 0 0.68,0.68 6.62,6.62 0 0 0 0.87,0.5 c 0.28,0.13 0.65,0.28 1.1,0.46 a 9.8,9.8 0 0 1 1.29,0.6 7,7 0 0 1 1.13,0.79 3.41,3.41 0 0 1 0.87,1.16 3.6,3.6 0 0 1 0.32,1.52 3.18,3.18 0 0 1 -1.09,2.55 4.31,4.31 0 0 1 -2.84,0.88 z"
     id="path956" />
  <path
     class="a82a4696-c3bc-4d6f-95cf-b1033f85947e"
     d="m 328.85,82.8 v -5.57 a 2.94,2.94 0 0 0 -0.57,-2 2,2 0 0 0 -1.55,-0.63 q -2.25,0 -2.25,2.61 v 5.6 h -1.25 v -9.13 h 1.25 v 1 a 2.7,2.7 0 0 1 2.36,-1.22 3,3 0 0 1 2.47,1 5.35,5.35 0 0 1 0.79,3.27 v 5 z"
     id="path958" />
  <path
     class="a82a4696-c3bc-4d6f-95cf-b1033f85947e"
     d="m 339.26,82.8 v -0.89 a 3.92,3.92 0 0 1 -2.68,1.09 3.15,3.15 0 0 1 -2.26,-0.8 3,3 0 0 1 -0.84,-2.29 2.73,2.73 0 0 1 0.95,-2.25 3.69,3.69 0 0 1 2.37,-0.77 5.13,5.13 0 0 1 2.46,0.64 v -0.77 c 0,-1.48 -0.67,-2.23 -2,-2.23 a 4.87,4.87 0 0 0 -2.71,1 l -0.36,-1.07 a 6,6 0 0 1 3.2,-1 3.77,3.77 0 0 1 1,0.14 3.24,3.24 0 0 1 1,0.46 2.33,2.33 0 0 1 0.76,1 4,4 0 0 1 0.28,1.58 v 6.16 z m -2.55,-0.87 a 3.27,3.27 0 0 0 2.55,-1.41 v -1.77 a 4.16,4.16 0 0 0 -2.34,-0.75 2.61,2.61 0 0 0 -1.63,0.49 1.68,1.68 0 0 0 -0.65,1.44 2,2 0 0 0 0.54,1.45 2,2 0 0 0 1.53,0.55 z"
     id="path960" />
  <path
     class="a82a4696-c3bc-4d6f-95cf-b1033f85947e"
     d="m 347.81,83 a 3.14,3.14 0 0 1 -2.5,-1.15 v 3.95 l -1.25,0.63 V 73.68 h 1.25 v 0.82 a 3.68,3.68 0 0 1 2.5,-1 3.32,3.32 0 0 1 2.76,1.3 6.47,6.47 0 0 1 0,7 3.39,3.39 0 0 1 -2.76,1.2 z m -0.14,-1.13 a 2.21,2.21 0 0 0 1.93,-1 4.61,4.61 0 0 0 0.68,-2.71 4.49,4.49 0 0 0 -0.7,-2.66 2.22,2.22 0 0 0 -1.91,-1 2.6,2.6 0 0 0 -1.36,0.37 2.85,2.85 0 0 0 -1,1 v 4.48 a 3.05,3.05 0 0 0 2.36,1.54 z"
     id="path962" />
  <path
     class="a82a4696-c3bc-4d6f-95cf-b1033f85947e"
     d="m 356.55,82.71 a 1,1 0 0 1 -0.79,0.34 1,1 0 0 1 -0.79,-0.34 1.05,1.05 0 0 1 -0.34,-0.78 1.12,1.12 0 0 1 1.92,-0.79 1.11,1.11 0 0 1 0.33,0.79 1.08,1.08 0 0 1 -0.33,0.78 z m -0.86,-3.35 -0.54,-5.4 v -3.87 h 1.29 V 74 l -0.56,5.4 z"
     id="path964" />
  <text
     xml:space="preserve"
     id="text973"
     style="font-style:normal;font-weight:normal;font-size:40px;line-height:1.25;font-family:sans-serif;white-space:pre;shape-inside:url(#rect975);fill:#000000;fill-opacity:1;stroke:none;"
     transform="matrix(1.4712081,0,0,1.4097289,-58.260308,-20.539947)"><tspan
       x="136.17188"
       y="51.251953"><tspan>Codezy</tspan></tspan></text>
</svg>
